<svg width="20" height="20" viewBox="0 0 20 20" fill="none" xmlns="http://www.w3.org/2000/svg">
<path d="M14.6672 3.3145C14.7543 3.40156 14.8234 3.50492 14.8705 3.61868C14.9177 3.73244 14.9419 3.85437 14.9419 3.9775C14.9419 4.10064 14.9177 4.22257 14.8705 4.33632C14.8234 4.45008 14.7543 4.55344 14.6672 4.6405L13.81 5.497H14.6875C15.0569 5.497 15.4227 5.56977 15.764 5.71116C16.1052 5.85255 16.4153 6.05978 16.6765 6.32103C16.9377 6.58227 17.1448 6.89241 17.2861 7.23372C17.4274 7.57504 17.5001 7.94085 17.5 8.31025V13.9353C17.5 14.6812 17.2037 15.3965 16.6762 15.924C16.1488 16.4514 15.4334 16.7478 14.6875 16.7478H5.3125C4.56658 16.7478 3.85121 16.4514 3.32376 15.924C2.79632 15.3965 2.5 14.6812 2.5 13.9353V8.31025C2.5 7.56433 2.79632 6.84896 3.32376 6.32151C3.85121 5.79407 4.56658 5.49775 5.3125 5.49775H6.187L5.33125 4.64125C5.24169 4.5548 5.17024 4.45137 5.12107 4.337C5.0719 4.22264 5.04601 4.09963 5.04489 3.97515C5.04377 3.85067 5.06746 3.72721 5.11457 3.61198C5.16167 3.49675 5.23125 3.39206 5.31925 3.30401C5.40725 3.21596 5.51191 3.14632 5.62711 3.09915C5.74231 3.05198 5.86575 3.02822 5.99023 3.02927C6.11471 3.03032 6.23774 3.05614 6.35213 3.10524C6.46653 3.15434 6.56999 3.22574 6.6565 3.31525L8.6455 5.30425C8.70475 5.3635 8.75425 5.428 8.794 5.497H11.2037C11.2435 5.428 11.2937 5.362 11.353 5.3035L13.3412 3.3145C13.4283 3.22742 13.5317 3.15834 13.6454 3.11121C13.7592 3.06408 13.8811 3.03983 14.0043 3.03983C14.1274 3.03983 14.2493 3.06408 14.3631 3.11121C14.4768 3.15834 14.5802 3.22742 14.6672 3.3145ZM14.6875 7.3795H5.3125C5.07587 7.37941 4.84797 7.46881 4.6745 7.62975C4.50104 7.7907 4.39485 8.01128 4.37725 8.24725L4.375 8.31775V13.9428C4.375 14.437 4.7575 14.842 5.24275 14.8773L5.3125 14.8803H14.6875C14.9241 14.8803 15.152 14.7909 15.3255 14.63C15.499 14.4691 15.6051 14.2485 15.6227 14.0125L15.625 13.9428V8.31775C15.625 7.80025 15.205 7.38025 14.6875 7.38025V7.3795ZM7.1875 9.2545C7.705 9.2545 8.125 9.6745 8.125 10.192V11.1295C8.125 11.3781 8.02623 11.6166 7.85041 11.7924C7.6746 11.9682 7.43614 12.067 7.1875 12.067C6.93886 12.067 6.7004 11.9682 6.52459 11.7924C6.34877 11.6166 6.25 11.3781 6.25 11.1295V10.192C6.25 9.6745 6.67 9.2545 7.1875 9.2545ZM12.8125 9.2545C13.33 9.2545 13.75 9.6745 13.75 10.192V11.1295C13.75 11.3781 13.6512 11.6166 13.4754 11.7924C13.2996 11.9682 13.0611 12.067 12.8125 12.067C12.5639 12.067 12.3254 11.9682 12.1496 11.7924C11.9738 11.6166 11.875 11.3781 11.875 11.1295V10.192C11.875 9.6745 12.295 9.2545 12.8125 9.2545Z" fill="#525866"/>
</svg>
