<svg width="20" height="20" viewBox="0 0 20 20" fill="none" xmlns="http://www.w3.org/2000/svg">
<path d="M13.75 16H6.25V16.75C6.25 16.9489 6.17098 17.1397 6.03033 17.2803C5.88968 17.421 5.69891 17.5 5.5 17.5H4.75C4.55109 17.5 4.36032 17.421 4.21967 17.2803C4.07902 17.1397 4 16.9489 4 16.75V16H3.25V10H2.5V7H3.25V4.75C3.25 4.35218 3.40804 3.97064 3.68934 3.68934C3.97064 3.40804 4.35218 3.25 4.75 3.25H15.25C15.6478 3.25 16.0294 3.40804 16.3107 3.68934C16.592 3.97064 16.75 4.35218 16.75 4.75V7H17.5V10H16.75V16H16V16.75C16 16.9489 15.921 17.1397 15.7803 17.2803C15.6397 17.421 15.4489 17.5 15.25 17.5H14.5C14.3011 17.5 14.1103 17.421 13.9697 17.2803C13.829 17.1397 13.75 16.9489 13.75 16.75V16ZM4.75 4.75V11.5H15.25V4.75H4.75ZM4.75 13V14.5H7.75V13H4.75ZM12.25 13V14.5H15.25V13H12.25Z" fill="#525866"/>
</svg>
