<svg width="19" height="21" viewBox="0 0 19 21" fill="none" xmlns="http://www.w3.org/2000/svg">
<path d="M5.42857 0.65625C5.42857 0.295312 5.12321 0 4.75 0C4.37679 0 4.07143 0.295312 4.07143 0.65625V2.625H2.71429C1.21719 2.625 0 3.80215 0 5.25V6.5625V7.875V18.375C0 19.8229 1.21719 21 2.71429 21H16.2857C17.7828 21 19 19.8229 19 18.375V7.875V6.5625V5.25C19 3.80215 17.7828 2.625 16.2857 2.625H14.9286V0.65625C14.9286 0.295312 14.6232 0 14.25 0C13.8768 0 13.5714 0.295312 13.5714 0.65625V2.625H5.42857V0.65625ZM1.35714 7.875H17.6429V18.375C17.6429 19.101 17.0364 19.6875 16.2857 19.6875H2.71429C1.96362 19.6875 1.35714 19.101 1.35714 18.375V7.875ZM2.71429 3.9375H16.2857C17.0364 3.9375 17.6429 4.52402 17.6429 5.25V6.5625H1.35714V5.25C1.35714 4.52402 1.96362 3.9375 2.71429 3.9375ZM10.1786 10.5C10.1786 10.1391 9.87321 9.84375 9.5 9.84375C9.12679 9.84375 8.82143 10.1391 8.82143 10.5V15.4793L6.58638 13.3178C6.32344 13.0635 5.89085 13.0635 5.6279 13.3178C5.36495 13.5721 5.36495 13.9904 5.6279 14.2447L9.02076 17.526C9.2837 17.7803 9.71629 17.7803 9.97924 17.526L13.3721 14.2447C13.635 13.9904 13.635 13.5721 13.3721 13.3178C13.1092 13.0635 12.6766 13.0635 12.4136 13.3178L10.1786 15.4793V10.5Z" fill="black"/>
</svg>
