<svg width="19" height="22" viewBox="0 0 19 22" fill="none" xmlns="http://www.w3.org/2000/svg">
<path d="M5.42857 0.6875C5.42857 0.309375 5.12321 0 4.75 0C4.37679 0 4.07143 0.309375 4.07143 0.6875V2.75H2.71429C1.21719 2.75 0 3.9832 0 5.5V6.875V8.25V19.25C0 20.7668 1.21719 22 2.71429 22H16.2857C17.7828 22 19 20.7668 19 19.25V8.25V6.875V5.5C19 3.9832 17.7828 2.75 16.2857 2.75H14.9286V0.6875C14.9286 0.309375 14.6232 0 14.25 0C13.8768 0 13.5714 0.309375 13.5714 0.6875V2.75H5.42857V0.6875ZM1.35714 8.25H17.6429V19.25C17.6429 20.0105 17.0364 20.625 16.2857 20.625H2.71429C1.96362 20.625 1.35714 20.0105 1.35714 19.25V8.25ZM2.71429 4.125H16.2857C17.0364 4.125 17.6429 4.73945 17.6429 5.5V6.875H1.35714V5.5C1.35714 4.73945 1.96362 4.125 2.71429 4.125ZM8.82143 17.875C8.82143 18.2531 9.12679 18.5625 9.5 18.5625C9.87321 18.5625 10.1786 18.2531 10.1786 17.875V12.6586L12.4136 14.923C12.6766 15.1895 13.1092 15.1895 13.3721 14.923C13.635 14.6566 13.635 14.2184 13.3721 13.952L9.97924 10.5145C9.71629 10.248 9.2837 10.248 9.02076 10.5145L5.6279 13.952C5.36495 14.2184 5.36495 14.6566 5.6279 14.923C5.89085 15.1895 6.32344 15.1895 6.58638 14.923L8.82143 12.6586V17.875Z" fill="black"/>
</svg>
