<svg width="20" height="20" viewBox="0 0 20 20" fill="none" xmlns="http://www.w3.org/2000/svg">
<path d="M5.12441 16C5.74541 16 6.24941 16.504 6.24941 17.125C6.24941 17.746 5.74541 18.25 5.12441 18.25C4.50341 18.25 3.99941 17.746 3.99941 17.125C3.99941 16.504 4.50341 16 5.12441 16ZM14.8744 16C15.4954 16 15.9994 16.504 15.9994 17.125C15.9994 17.746 15.4954 18.25 14.8744 18.25C14.2534 18.25 13.7494 17.746 13.7494 17.125C13.7494 16.504 14.2534 16 14.8744 16ZM2.62841 2.31775L5.49866 5.18875V13.75H15.9994V15.25H4.74941C4.33541 15.25 3.99941 14.914 3.99941 14.5V5.80975L1.56641 3.379L2.62766 2.31775H2.62841ZM12.9994 3.25C13.4134 3.25 13.7494 3.586 13.7494 4V5.5H15.9942C16.4119 5.5 16.7494 5.842 16.7494 6.24625V12.2537C16.7494 12.6662 16.4119 13 15.9942 13H7.00466C6.58691 13 6.24941 12.658 6.24941 12.2537V6.24625C6.24941 5.83375 6.58691 5.5 7.00466 5.5H9.24866L9.24941 4C9.24941 3.586 9.58541 3.25 9.99941 3.25H12.9994ZM8.49941 7H7.74941V11.5H8.49941V7ZM12.9994 7H9.99941V11.5H12.9994V7ZM15.2494 7H14.4994V11.5H15.2494V7ZM12.2494 4.75H10.7494V5.5H12.2494V4.75Z" fill="#525866"/>
</svg>
