<svg width="11" height="14" viewBox="0 0 11 14" fill="none" xmlns="http://www.w3.org/2000/svg">
<path d="M1.6499 2H0.399902V0.75H10.3999V2H9.1499V3.25C9.1499 4.25964 8.63978 5.07168 7.99746 5.73542C7.55815 6.18937 7.02365 6.6075 6.48171 7C7.02365 7.3925 7.55815 7.81063 7.99746 8.26456C8.63978 8.92831 9.1499 9.74037 9.1499 10.75V12H10.3999V13.25H0.399902V12H1.6499V10.75C1.6499 9.74037 2.16 8.92831 2.80234 8.26456C3.24166 7.81063 3.77617 7.3925 4.31809 7C3.77617 6.6075 3.24166 6.18937 2.80234 5.73542C2.16 5.07168 1.6499 4.25964 1.6499 3.25V2ZM2.8999 2V3.25C2.8999 3.67821 3.06256 4.08437 3.38197 4.5H7.41784C7.73721 4.08437 7.8999 3.67821 7.8999 3.25V2H2.8999ZM5.3999 7.76369C4.74665 8.22512 4.1549 8.66437 3.70059 9.13387C3.5812 9.25725 3.47495 9.379 3.38197 9.5H7.41784C7.32484 9.379 7.21859 9.25725 7.09921 9.13387C6.6449 8.66437 6.05315 8.22512 5.3999 7.76369Z" fill="#868C98"/>
</svg>
