<svg width="16" height="16" viewBox="0 0 16 16" fill="none" xmlns="http://www.w3.org/2000/svg">
<path d="M8.19995 15.5C4.0577 15.5 0.699951 12.1423 0.699951 8C0.699951 3.85775 4.0577 0.5 8.19995 0.5C12.3422 0.5 15.7 3.85775 15.7 8C15.7 12.1423 12.3422 15.5 8.19995 15.5ZM8.19995 14C9.79125 14 11.3174 13.3679 12.4426 12.2426C13.5678 11.1174 14.2 9.5913 14.2 8C14.2 6.4087 13.5678 4.88258 12.4426 3.75736C11.3174 2.63214 9.79125 2 8.19995 2C6.60865 2 5.08253 2.63214 3.95731 3.75736C2.83209 4.88258 2.19995 6.4087 2.19995 8C2.19995 9.5913 2.83209 11.1174 3.95731 12.2426C5.08253 13.3679 6.60865 14 8.19995 14ZM8.19995 6.9395L10.321 4.81775L11.3822 5.879L9.26045 8L11.3822 10.121L10.321 11.1823L8.19995 9.0605L6.07895 11.1823L5.0177 10.121L7.13945 8L5.0177 5.879L6.07895 4.81775L8.19995 6.9395Z" fill="#868C98"/>
</svg>
