<svg width="24" height="24" viewBox="0 0 24 24" fill="none" xmlns="http://www.w3.org/2000/svg">
<path d="M7.50039 18.3V12.9H16.5004V18.3H18.3004V8.24522L15.7552 5.70002H5.70039V18.3H7.50039ZM4.80039 3.90002H16.5004L20.1004 7.50002V19.2C20.1004 19.4387 20.0056 19.6676 19.8368 19.8364C19.668 20.0052 19.4391 20.1 19.2004 20.1H4.80039C4.5617 20.1 4.33278 20.0052 4.16399 19.8364C3.99521 19.6676 3.90039 19.4387 3.90039 19.2V4.80002C3.90039 4.56133 3.99521 4.33241 4.16399 4.16363C4.33278 3.99485 4.5617 3.90002 4.80039 3.90002ZM9.30039 14.7V18.3H14.7004V14.7H9.30039Z" fill="white"/>
</svg>
