<svg width="20" height="20" viewBox="0 0 20 20" fill="none" xmlns="http://www.w3.org/2000/svg">
<path d="M7.75 4H11.8345C11.9617 4 12.0868 4.03235 12.1981 4.09402C12.3093 4.15568 12.4031 4.24463 12.4705 4.3525L15.0625 8.5H18.3685C18.4336 8.49995 18.4976 8.51686 18.5542 8.54907C18.6108 8.58127 18.6581 8.62766 18.6913 8.68367C18.7245 8.73968 18.7426 8.80337 18.7437 8.86848C18.7449 8.93359 18.729 8.99787 18.6977 9.055L15.7277 14.5H15.25C14.8615 14.5003 14.4745 14.4504 14.0987 14.3515L16.4725 10H3.55L4.336 14.368C3.9807 14.4559 3.61602 14.5002 3.25 14.5H2.84125L1.91125 9.38425C1.89161 9.27628 1.8959 9.16531 1.92382 9.05918C1.95174 8.95304 2.00261 8.85433 2.07285 8.77001C2.14309 8.68568 2.23097 8.61779 2.33031 8.57114C2.42964 8.52449 2.53801 8.5002 2.64775 8.5H3.25V4.75C3.25 4.55109 3.32902 4.36032 3.46967 4.21967C3.61032 4.07902 3.80109 4 4 4H4.75V1.75H7.75V4ZM4.75 8.5H13.294L11.419 5.5H4.75V8.5ZM3.25 16C4.3572 16.0015 5.42581 15.5933 6.25 14.854C7.07419 15.5933 8.1428 16.0015 9.25 16C10.3572 16.0015 11.4258 15.5933 12.25 14.854C13.0742 15.5933 14.1428 16.0015 15.25 16H16.75V17.5H15.25C14.1967 17.5017 13.1617 17.2249 12.25 16.6975C11.3383 17.2249 10.3033 17.5017 9.25 17.5C8.19673 17.5017 7.16174 17.2249 6.25 16.6975C5.33826 17.2249 4.30327 17.5017 3.25 17.5H1.75V16H3.25Z" fill="#525866"/>
</svg>
