<svg width="24" height="24" viewBox="0 0 24 24" fill="none" xmlns="http://www.w3.org/2000/svg">
<path d="M13.7998 14.0268V15.9078C12.9852 15.6198 12.1135 15.5314 11.2577 15.6502C10.4019 15.7689 9.58708 16.0913 8.88169 16.5902C8.1763 17.089 7.60091 17.7499 7.20385 18.5172C6.80679 19.2846 6.59964 20.136 6.5998 21L4.7998 20.9991C4.79953 19.9001 5.05083 18.8156 5.53447 17.8287C6.01811 16.8419 6.72125 15.9788 7.59 15.3057C8.45875 14.6326 9.47006 14.1673 10.5464 13.9455C11.6228 13.7236 12.7357 13.7511 13.7998 14.0259V14.0268ZM11.9998 12.9C9.0163 12.9 6.5998 10.4835 6.5998 7.49998C6.5998 4.51648 9.0163 2.09998 11.9998 2.09998C14.9833 2.09998 17.3998 4.51648 17.3998 7.49998C17.3998 10.4835 14.9833 12.9 11.9998 12.9ZM11.9998 11.1C13.9888 11.1 15.5998 9.48898 15.5998 7.49998C15.5998 5.51098 13.9888 3.89998 11.9998 3.89998C10.0108 3.89998 8.39981 5.51098 8.39981 7.49998C8.39981 9.48898 10.0108 11.1 11.9998 11.1ZM17.3998 16.5V13.8H19.1998V16.5H21.8998V18.3H19.1998V21H17.3998V18.3H14.6998V16.5H17.3998Z" fill="white"/>
</svg>
