<svg width="13" height="17" viewBox="0 0 13 17" fill="none" xmlns="http://www.w3.org/2000/svg">
<path d="M5.37229 5.5925L3.99979 6.092V8.75H2.49979V5.0375H2.51104L6.46204 3.599C6.64504 3.52925 6.84454 3.494 7.04854 3.50075C7.45617 3.51092 7.85051 3.64783 8.17673 3.89246C8.50295 4.13709 8.74485 4.47729 8.86879 4.86575C9.00829 5.303 9.13579 5.5985 9.25129 5.75225C9.60035 6.21771 10.0531 6.59542 10.5736 6.85541C11.0941 7.11539 11.668 7.25049 12.2498 7.25V8.75C11.4753 8.75084 10.7102 8.57996 10.0096 8.24965C9.30906 7.91934 8.69044 7.43782 8.19829 6.83975L7.67554 9.80675L9.24979 11.1275V16.25H7.74979V11.8265L6.04729 10.3985L5.50204 13.4938L0.331543 12.5825L0.592543 11.105L4.28554 11.756L5.37229 5.5925ZM8.12479 3.125C7.72697 3.125 7.34544 2.96696 7.06413 2.68566C6.78283 2.40436 6.62479 2.02282 6.62479 1.625C6.62479 1.22718 6.78283 0.845644 7.06413 0.56434C7.34544 0.283035 7.72697 0.125 8.12479 0.125C8.52262 0.125 8.90415 0.283035 9.18545 0.56434C9.46676 0.845644 9.62479 1.22718 9.62479 1.625C9.62479 2.02282 9.46676 2.40436 9.18545 2.68566C8.90415 2.96696 8.52262 3.125 8.12479 3.125Z" fill="#525866"/>
</svg>
