<svg width="273" height="116" viewBox="0 0 273 116" fill="none" xmlns="http://www.w3.org/2000/svg">
<g clip-path="url(#clip0_1349_1687)">
<path d="M220.107 18.472C225.967 18.0727 231.703 19.1505 231.505 26.2633C234.021 22.6825 236.922 19.2771 241.333 18.0499C255.589 14.0796 269.334 23.2929 270.2 38.1549C271.011 51.0236 270.36 64.0027 270.568 76.9072H264.871C264.119 76.9072 261.57 75.5502 260.997 74.9269C260.189 74.0503 259.418 71.6837 259.258 70.4923C257.878 60.2207 262.045 39.0899 255.765 31.1232C251.653 25.9062 241.48 25.3543 236.541 29.5032C233.715 31.8731 231.502 37.7718 231.502 41.3591V76.9072H225.804C224.584 76.9072 222.109 75.1833 221.406 74.151C221.055 73.6348 220.107 71.0247 220.107 70.5767V18.472Z" fill="white"/>
<path d="M205.132 76.9071H199.76C197.25 76.9071 194.675 74.1704 194.141 71.7973C191.712 61.0452 197.182 39.2846 190.29 30.8375C186.432 26.1075 177.222 25.7179 172.277 28.7241C167.491 31.6361 166.335 38.7944 166.052 43.9432C165.46 54.731 166.524 66.0642 166.065 76.9071H160.368C157.845 76.9071 155.55 73.7549 155.075 71.4727C154.716 69.7618 155.104 68.3951 155.026 67.0024C154.196 51.9164 155.403 36.6745 155.013 21.5398C154.983 20.3776 154.069 18.7349 155.488 18.472C158.665 17.8844 164.695 18.9492 165.57 22.702L166.391 26.5847C170.216 17.8551 179.582 16.2189 188.219 17.972C199.705 20.3062 204.38 29.8246 205.151 40.6936L205.138 76.9039L205.132 76.9071Z" fill="white"/>
<path d="M124.3 17.3228C130.677 17.1897 138.614 18.9849 143.478 23.1696C141.606 33.4217 133.142 27.3639 126.849 26.8997C115.643 26.0751 109.663 32.3893 108.156 43.0213C106.17 57.0263 112.28 71.2747 128.701 68.3789C134.75 67.3141 141.854 62.9964 143.553 72.4954C131.641 81.0009 110.975 80.4653 101.986 67.9244C96.9728 60.9284 95.3776 51.1243 96.4357 42.6967C98.4313 26.825 108.13 17.6572 124.297 17.3195L124.3 17.3228Z" fill="white"/>
<path d="M74.6398 55.8575C74.1743 56.2536 70.4499 53.8091 69.737 53.3611C72.4586 42.0084 66.2047 30.409 54.9536 26.9581C34.1409 20.5789 17.2576 45.2256 31.1783 61.7043C36.2602 67.7199 43.2629 72.9011 48.7615 78.5759L56.0865 71.2747L55.4614 71.0994C54.5368 69.9729 58.9969 70.0963 59.5797 69.7229C60.0973 69.3885 62.1255 66.0934 62.9166 65.4279L55.1163 61.6946C55.0317 61.2628 55.2531 60.9479 55.5851 60.7077C56.8418 59.8019 63.7435 61.6134 65.661 61.6199C67.4907 60.3635 68.552 57.6918 71.1759 58.1105C73.1 60.0941 68.9296 62.7724 68.7831 64.1424C68.6268 65.6292 71.075 70.9955 71.3387 72.9856C71.4657 73.9465 70.8406 75.1769 70.0951 74.1932L65.3745 67.5446C64.9383 67.7166 61.8423 71.1643 61.6958 71.6708C61.367 72.8038 61.9692 74.7646 61.4679 75.6638C60.9665 76.5631 60.4619 74.6997 60.1592 74.6899L48.449 86.364C42.6932 80.3224 36.1788 74.9853 30.5305 68.8431C26.7378 64.7202 23.6352 61.0648 22.0726 55.5264C15.4964 32.2497 40.1962 12.4077 61.52 23.9812C72.8655 30.1396 77.9995 43.5115 74.6463 55.8511L74.6398 55.8575Z" fill="white"/>
<path d="M48.2728 115.267L46.798 114.303C27.5415 91.9935 -4.17725 75.6414 0.45539 41.4503C3.15098 21.5597 19.191 4.2531 39.0824 0.756729C40.4562 0.516495 47.5435 -0.51586 48.1295 0.324958L48.237 4.53229C33.9386 6.41196 21.6685 11.2361 13.1715 23.29C0.211224 41.6776 3.90952 63.37 18.7613 79.1183C25.8161 86.6013 33.4503 93.8635 40.772 101.161C42.4323 102.817 48.2728 107.469 48.2728 109.586V115.267Z" fill="white"/>
<path d="M48.2732 100.982L18.9831 71.5928C10.6359 61.1556 8.5165 49.6439 12.3776 36.7784C17.199 20.7185 31.5039 10.4371 48.2764 10.4047L47.9639 15.1282C40.7952 16.1605 34.2613 17.8681 28.4469 22.2865C16.9907 30.9868 12.9961 46.7189 18.1692 60.0746C22.9906 72.5213 38.7572 81.8806 46.8212 92.2107C47.0784 92.5386 48.2797 94.4994 48.2797 94.652V100.982H48.2732Z" fill="white"/>
<path d="M47.557 35.824C63.5482 34.717 65.2606 58.8832 50.0605 60.4025C32.6726 62.1393 31.123 36.9635 47.557 35.824ZM46.5608 41.3266C38.5489 42.6771 39.7795 57.1918 50.2461 55.0654C58.1733 53.4552 57.0176 39.5639 46.5608 41.3266Z" fill="white"/>
<path d="M189.505 103.203V86.1594C190.71 85.5231 193.106 85.3023 194.561 85.3283C199.799 85.4192 203.859 87.7242 204.165 93.2853C204.669 102.44 197.237 104.528 189.502 103.203H189.505ZM192.11 101.58C198.217 101.979 202.029 99.8365 201.564 93.2885C201.186 87.9709 196.706 86.76 192.11 87.6203V101.58Z" fill="white"/>
<path d="M130.176 85.4355C136.674 84.5005 140.19 89.5616 139.689 95.5707C139.126 102.362 131.849 106.524 126.344 101.745C121.181 97.2653 123.099 86.4516 130.176 85.4322V85.4355ZM130.824 87.3736C123.785 88.4968 124.42 102.862 132.68 101.56C139.126 100.544 138.673 86.1205 130.824 87.3736Z" fill="white"/>
<path d="M100.303 85.6725V92.6522C101.57 93.4411 104.089 93.2204 105.688 93.1554C106.593 93.1197 108.12 93.071 108.768 92.6522V85.6725H111.372V103.041C110.789 103.768 109.399 103.8 108.768 103.041V95.087H100.303V103.041C99.7758 103.774 98.8154 103.505 98.0244 103.528V85.6725H100.303Z" fill="white"/>
<path d="M223.646 85.718L229.548 103.528L227.107 103.203L225.121 97.6647L219.121 97.8335L217.128 103.473L214.902 103.524L220.596 85.9907L223.649 85.7147L223.646 85.718ZM224.665 95.7364L222.383 88.2696C221.888 88.3183 221.882 88.7501 221.751 89.0975C220.97 91.2109 220.514 93.5905 219.782 95.7364H224.665Z" fill="white"/>
<path d="M265.454 91.753C266.261 92.714 269.406 93.4509 270.731 94.4411C275.858 98.2686 271.489 104.586 265.6 103.778C263.67 103.511 261.319 102.904 262.433 100.609C262.778 100.301 269.357 103.859 270.412 99.1581C271.385 94.8144 263.126 95.6422 262.449 91.0096C261.674 85.7017 268.488 83.8545 272.115 86.4744L271.343 87.9288C270.177 87.8054 269.403 87.2178 268.14 87.286C265.714 87.4158 263.618 89.5715 265.457 91.753H265.454Z" fill="white"/>
<path d="M245.826 103.528L243.69 103.223L243.469 95.6519L238.009 85.8381L240.891 85.7244L245.009 93.7885C245.445 93.6522 248.131 86.6854 248.915 85.9907C249.606 85.3771 250.804 85.7537 251.686 85.6725C252.148 86.0783 245.829 95.3078 245.829 95.8954V103.524L245.826 103.528Z" fill="white"/>
<path d="M154.671 85.6725V100.444C154.671 100.544 154.225 100.905 154.345 101.255H161.67C162.334 101.255 162.334 103.528 161.67 103.528H152.555L152.066 103.041V85.6725H154.671Z" fill="white"/>
<path d="M176.157 85.6725V103.041C176.157 103.703 173.879 103.703 173.879 103.041V85.6725H176.157Z" fill="white"/>
</g>
<defs>
<clipPath id="clip0_1349_1687">
<rect width="273" height="115.267" fill="white"/>
</clipPath>
</defs>
</svg>
