<svg width="135" height="58" viewBox="0 0 135 58" fill="none" xmlns="http://www.w3.org/2000/svg">
<g clip-path="url(#clip0_465_2794)">
<path d="M108.844 9.63453C111.742 9.43707 114.579 9.97005 114.48 13.4874C115.725 11.7167 117.159 10.0327 119.341 9.42583C126.39 7.46247 133.187 12.0185 133.616 19.3678C134.016 25.7315 133.694 32.1497 133.797 38.5311H130.98C130.608 38.5311 129.348 37.86 129.064 37.5518C128.665 37.1183 128.284 35.948 128.205 35.3589C127.522 30.2795 129.583 19.8302 126.477 15.8906C124.444 13.3108 119.413 13.0379 116.971 15.0896C115.574 16.2615 114.479 19.1784 114.479 20.9523V38.5311H111.662C111.058 38.5311 109.834 37.6786 109.487 37.1681C109.313 36.9129 108.844 35.6221 108.844 35.4006V9.63453Z" fill="#000099"/>
<path d="M101.439 38.531H98.7826C97.5414 38.531 96.268 37.1777 96.004 36.0042C94.803 30.6872 97.5076 19.9265 94.0995 15.7493C92.1918 13.4103 87.6374 13.2177 85.192 14.7042C82.8255 16.1443 82.254 19.6841 82.1139 22.2302C81.8209 27.5648 82.3473 33.1691 82.1204 38.531H79.3031C78.0554 38.531 76.9204 36.9722 76.6854 35.8437C76.5083 34.9976 76.6999 34.3218 76.6612 33.6331C76.2507 26.173 76.848 18.6358 76.6548 11.1516C76.6403 10.5769 76.1879 9.76454 76.8898 9.63451C78.4611 9.34394 81.4426 9.8705 81.8756 11.7263L82.2813 13.6463C84.173 9.32949 88.8046 8.52039 93.0756 9.38728C98.7553 10.5415 101.067 15.2485 101.449 20.6232L101.442 38.5294L101.439 38.531Z" fill="#000099"/>
<path d="M61.4668 9.06626C64.6205 9.00044 68.5454 9.88821 70.9506 11.9575C70.0249 17.0273 65.8392 14.0317 62.7273 13.8021C57.1861 13.3943 54.2287 16.5168 53.4834 21.7743C52.5013 28.6998 55.5231 35.7458 63.6433 34.3138C66.6345 33.7872 70.1473 31.6521 70.9876 36.3494C65.0971 40.5554 54.8775 40.2906 50.4326 34.089C47.9534 30.6295 47.1646 25.7813 47.6878 21.6138C48.6746 13.7652 53.4705 9.23162 61.4652 9.06466L61.4668 9.06626Z" fill="#000099"/>
<path d="M36.9099 28.1219C36.6797 28.3177 34.838 27.1089 34.4854 26.8873C35.8313 21.2734 32.7387 15.5374 27.1749 13.8309C16.8829 10.6764 8.53407 22.8643 15.4179 31.0131C17.931 33.9879 21.3938 36.55 24.1129 39.3562L27.7351 35.7457L27.426 35.659C26.9688 35.102 29.1744 35.163 29.4626 34.9784C29.7185 34.813 30.7215 33.1836 31.1127 32.8545L27.2554 31.0083C27.2135 30.7948 27.323 30.6391 27.4872 30.5203C28.1086 30.0724 31.5216 30.9682 32.4698 30.9714C33.3746 30.3501 33.8994 29.0289 35.197 29.236C36.1484 30.2169 34.0861 31.5413 34.0137 32.2187C33.9364 32.954 35.1471 35.6077 35.2775 36.5918C35.3402 37.0669 35.0311 37.6754 34.6625 37.1889L32.3281 33.9012C32.1124 33.9862 30.5814 35.6911 30.509 35.9416C30.3464 36.5019 30.6442 37.4715 30.3963 37.9162C30.1484 38.3609 29.8988 37.4394 29.7491 37.4346L23.9584 43.2075C21.1121 40.2199 17.8907 37.5807 15.0976 34.5433C13.222 32.5045 11.6878 30.6969 10.9151 27.9581C7.66312 16.4477 19.8773 6.63569 30.422 12.3588C36.0325 15.4042 38.5713 22.0167 36.9131 28.1186L36.9099 28.1219Z" fill="#000099"/>
<path d="M23.8711 57.5003L23.1418 57.0235C13.6194 45.9914 -2.06571 37.9052 0.225157 20.9976C1.55814 11.1615 9.49004 2.60331 19.3264 0.874333C20.0058 0.755536 23.5105 0.245031 23.8003 0.66082L23.8534 2.74137C16.7828 3.67087 10.7152 6.05644 6.51336 12.0172C0.104416 21.1099 1.93324 31.837 9.27753 39.6246C12.7661 43.3249 16.5413 46.9161 20.162 50.525C20.983 51.3437 23.8711 53.6442 23.8711 54.6909V57.5003Z" fill="#000099"/>
<path d="M23.8712 50.4364L9.38709 35.903C5.25935 30.7418 4.21132 25.0492 6.12064 18.6871C8.50488 10.7454 15.5787 5.6612 23.8728 5.64514L23.7183 7.98094C20.1733 8.49145 16.9423 9.33587 14.067 11.5208C8.40184 15.8231 6.42652 23.6027 8.98462 30.2072C11.3689 36.3621 19.1655 40.9904 23.1532 46.0987C23.2804 46.2608 23.8744 47.2305 23.8744 47.3059V50.4364H23.8712Z" fill="#000099"/>
<path d="M23.5172 18.2151C31.4249 17.6677 32.2717 29.618 24.7552 30.3693C16.1568 31.2282 15.3905 18.7786 23.5172 18.2151ZM23.0246 20.9362C19.0626 21.6041 19.6712 28.7816 24.847 27.7301C28.767 26.9339 28.1955 20.0645 23.0246 20.9362Z" fill="#000099"/>
<path d="M93.7116 51.5345V43.1063C94.3072 42.7917 95.4921 42.6825 96.2117 42.6953C98.802 42.7403 100.81 43.8801 100.961 46.6301C101.21 51.1572 97.535 52.1895 93.71 51.5345H93.7116ZM94.9995 50.7318C98.0196 50.9292 99.9048 49.8697 99.6746 46.6317C99.4878 44.0021 97.2726 43.4033 94.9995 43.8287V50.7318Z" fill="#555555"/>
<path d="M64.3728 42.7483C67.5861 42.286 69.3248 44.7887 69.0769 47.7602C68.7983 51.1187 65.2003 53.1767 62.4779 50.8136C59.9247 48.5982 60.8729 43.2508 64.3728 42.7467V42.7483ZM64.6931 43.7067C61.2126 44.2622 61.5265 51.3659 65.6108 50.7221C68.7983 50.2197 68.5746 43.087 64.6931 43.7067Z" fill="#555555"/>
<path d="M49.6006 42.8655V46.317C50.2268 46.7071 51.4728 46.5979 52.2633 46.5658C52.7108 46.5482 53.4659 46.5241 53.7862 46.317V42.8655H55.0742V51.4542C54.786 51.8138 54.0986 51.8298 53.7862 51.4542V47.521H49.6006V51.4542C49.3398 51.817 48.8648 51.6837 48.4736 51.695V42.8655H49.6006Z" fill="#555555"/>
<path d="M110.594 42.888L113.513 51.695L112.305 51.5344L111.323 48.7957L108.356 48.8792L107.371 51.6677L106.27 51.6934L109.086 43.0228L110.596 42.8864L110.594 42.888ZM111.098 47.8421L109.97 44.1498C109.725 44.1739 109.722 44.3874 109.657 44.5591C109.271 45.6042 109.045 46.781 108.683 47.8421H111.098Z" fill="#555555"/>
<path d="M131.268 45.8723C131.668 46.3475 133.223 46.7119 133.878 47.2016C136.414 49.0943 134.253 52.2183 131.341 51.8186C130.386 51.687 129.224 51.3868 129.774 50.2518C129.945 50.0993 133.199 51.8587 133.72 49.5342C134.202 47.3862 130.117 47.7956 129.782 45.5047C129.399 42.8799 132.769 41.9665 134.562 43.262L134.181 43.9812C133.604 43.9202 133.221 43.6297 132.596 43.6634C131.397 43.7276 130.36 44.7935 131.27 45.8723H131.268Z" fill="#555555"/>
<path d="M121.563 51.6951L120.507 51.5442L120.397 47.8005L117.697 42.9474L119.122 42.8913L121.159 46.879C121.374 46.8115 122.702 43.3664 123.09 43.0229C123.432 42.7195 124.024 42.9057 124.46 42.8656C124.689 43.0662 121.564 47.6303 121.564 47.9209V51.6935L121.563 51.6951Z" fill="#555555"/>
<path d="M76.4857 42.8655V50.1699C76.4857 50.2196 76.2651 50.3978 76.3247 50.5712H79.9469C80.2753 50.5712 80.2753 51.695 79.9469 51.695H75.4392L75.1978 51.4542V42.8655H76.4857Z" fill="#555555"/>
<path d="M87.1108 42.8655V51.4542C87.1108 51.7817 85.9839 51.7817 85.9839 51.4542V42.8655H87.1108Z" fill="#555555"/>
</g>
<defs>
<clipPath id="clip0_465_2794">
<rect width="135" height="57" fill="white" transform="translate(0 0.5)"/>
</clipPath>
</defs>
</svg>
