<svg width="12" height="13" viewBox="0 0 12 13" fill="none" xmlns="http://www.w3.org/2000/svg">
<path d="M6 11C3.51465 11 1.5 8.98535 1.5 6.5C1.5 4.01465 3.51465 2 6 2C8.48535 2 10.5 4.01465 10.5 6.5C10.5 8.98535 8.48535 11 6 11ZM6 10.1C6.95478 10.1 7.87045 9.72072 8.54558 9.04558C9.22072 8.37045 9.6 7.45478 9.6 6.5C9.6 5.54522 9.22072 4.62955 8.54558 3.95442C7.87045 3.27928 6.95478 2.9 6 2.9C5.04522 2.9 4.12955 3.27928 3.45442 3.95442C2.77928 4.62955 2.4 5.54522 2.4 6.5C2.4 7.45478 2.77928 8.37045 3.45442 9.04558C4.12955 9.72072 5.04522 10.1 6 10.1ZM5.55135 8.3L3.642 6.39065L4.2783 5.75435L5.55135 7.0274L8.09655 4.48175L8.7333 5.11805L5.55135 8.3Z" fill="white"/>
</svg>
