<svg width="135" height="57" viewBox="0 0 135 57" fill="none" xmlns="http://www.w3.org/2000/svg">
<g clip-path="url(#clip0_465_6135)">
<path d="M108.844 9.13453C111.742 8.93707 114.579 9.47005 114.48 12.9874C115.725 11.2167 117.159 9.53266 119.341 8.92583C126.39 6.96247 133.187 11.5185 133.616 18.8678C134.016 25.2315 133.694 31.6497 133.797 38.0311H130.98C130.608 38.0311 129.348 37.36 129.064 37.0518C128.665 36.6183 128.284 35.448 128.205 34.8589C127.522 29.7795 129.583 19.3302 126.477 15.3906C124.444 12.8108 119.413 12.5379 116.971 14.5896C115.574 15.7615 114.479 18.6784 114.479 20.4523V38.0311H111.662C111.058 38.0311 109.834 37.1786 109.487 36.6681C109.313 36.4129 108.844 35.1221 108.844 34.9006V9.13453Z" fill="white"/>
<path d="M101.439 38.031H98.7826C97.5414 38.031 96.268 36.6777 96.004 35.5042C94.803 30.1872 97.5076 19.4265 94.0995 15.2493C92.1918 12.9103 87.6374 12.7177 85.192 14.2042C82.8255 15.6443 82.254 19.1841 82.1139 21.7302C81.8209 27.0648 82.3473 32.6691 82.1204 38.031H79.3031C78.0554 38.031 76.9204 36.4722 76.6854 35.3437C76.5083 34.4976 76.6999 33.8218 76.6612 33.1331C76.2507 25.673 76.848 18.1358 76.6548 10.6516C76.6403 10.0769 76.1879 9.26454 76.8898 9.13451C78.4611 8.84394 81.4426 9.3705 81.8756 11.2263L82.2813 13.1463C84.173 8.82949 88.8046 8.02039 93.0756 8.88728C98.7553 10.0415 101.067 14.7485 101.449 20.1232L101.442 38.0294L101.439 38.031Z" fill="white"/>
<path d="M61.4668 8.56626C64.6205 8.50044 68.5454 9.38821 70.9506 11.4575C70.0249 16.5273 65.8392 13.5317 62.7273 13.3021C57.1861 12.8943 54.2287 16.0168 53.4834 21.2743C52.5013 28.1998 55.5231 35.2458 63.6433 33.8138C66.6345 33.2872 70.1473 31.1521 70.9876 35.8494C65.0971 40.0554 54.8775 39.7906 50.4326 33.589C47.9534 30.1295 47.1646 25.2813 47.6878 21.1138C48.6746 13.2652 53.4705 8.73162 61.4652 8.56466L61.4668 8.56626Z" fill="white"/>
<path d="M36.9099 27.6219C36.6797 27.8177 34.838 26.6089 34.4854 26.3873C35.8313 20.7734 32.7387 15.0374 27.1749 13.3309C16.8829 10.1764 8.53407 22.3643 15.4179 30.5131C17.931 33.4879 21.3938 36.05 24.1129 38.8562L27.7351 35.2457L27.426 35.159C26.9688 34.602 29.1744 34.663 29.4626 34.4784C29.7185 34.313 30.7215 32.6836 31.1127 32.3545L27.2554 30.5083C27.2135 30.2948 27.323 30.1391 27.4872 30.0203C28.1086 29.5724 31.5216 30.4682 32.4698 30.4714C33.3746 29.8501 33.8994 28.5289 35.197 28.736C36.1484 29.7169 34.0861 31.0413 34.0137 31.7187C33.9364 32.454 35.1471 35.1077 35.2775 36.0918C35.3402 36.5669 35.0311 37.1754 34.6625 36.6889L32.3281 33.4012C32.1124 33.4862 30.5814 35.1911 30.509 35.4416C30.3464 36.0019 30.6442 36.9715 30.3963 37.4162C30.1484 37.8609 29.8988 36.9394 29.7491 36.9346L23.9584 42.7075C21.1121 39.7199 17.8907 37.0807 15.0976 34.0433C13.222 32.0045 11.6878 30.1969 10.9151 27.4581C7.66312 15.9477 19.8773 6.13569 30.422 11.8588C36.0325 14.9042 38.5713 21.5167 36.9131 27.6186L36.9099 27.6219Z" fill="white"/>
<path d="M23.8711 57.0003L23.1418 56.5235C13.6194 45.4914 -2.06571 37.4052 0.225157 20.4976C1.55814 10.6615 9.49004 2.10331 19.3264 0.374333C20.0058 0.255536 23.5105 -0.254969 23.8003 0.16082L23.8534 2.24137C16.7828 3.17087 10.7152 5.55644 6.51336 11.5172C0.104416 20.6099 1.93324 31.337 9.27753 39.1246C12.7661 42.8249 16.5413 46.4161 20.162 50.025C20.983 50.8437 23.8711 53.1442 23.8711 54.1909V57.0003Z" fill="white"/>
<path d="M23.8712 49.9364L9.38709 35.403C5.25935 30.2418 4.21132 24.5492 6.12064 18.1871C8.50488 10.2454 15.5787 5.1612 23.8728 5.14514L23.7183 7.48094C20.1733 7.99145 16.9423 8.83587 14.067 11.0208C8.40184 15.3231 6.42652 23.1027 8.98462 29.7072C11.3689 35.8621 19.1655 40.4904 23.1532 45.5987C23.2804 45.7608 23.8744 46.7305 23.8744 46.8059V49.9364H23.8712Z" fill="white"/>
<path d="M23.5172 17.7151C31.4249 17.1677 32.2717 29.118 24.7552 29.8693C16.1568 30.7282 15.3905 18.2786 23.5172 17.7151ZM23.0246 20.4362C19.0626 21.1041 19.6712 28.2816 24.847 27.2301C28.767 26.4339 28.1955 19.5645 23.0246 20.4362Z" fill="white"/>
<path d="M93.7116 51.0345V42.6063C94.3072 42.2917 95.4921 42.1825 96.2117 42.1953C98.802 42.2403 100.81 43.3801 100.961 46.1301C101.21 50.6572 97.535 51.6895 93.71 51.0345H93.7116ZM94.9995 50.2318C98.0196 50.4292 99.9048 49.3697 99.6746 46.1317C99.4878 43.5021 97.2726 42.9033 94.9995 43.3287V50.2318Z" fill="white"/>
<path d="M64.3728 42.2483C67.5861 41.786 69.3248 44.2887 69.0769 47.2602C68.7983 50.6187 65.2003 52.6767 62.4779 50.3136C59.9247 48.0982 60.8729 42.7508 64.3728 42.2467V42.2483ZM64.6931 43.2067C61.2126 43.7622 61.5265 50.8659 65.6108 50.2221C68.7983 49.7197 68.5746 42.587 64.6931 43.2067Z" fill="white"/>
<path d="M49.6006 42.3655V45.817C50.2268 46.2071 51.4728 46.0979 52.2633 46.0658C52.7108 46.0482 53.4659 46.0241 53.7862 45.817V42.3655H55.0742V50.9542C54.786 51.3138 54.0986 51.3298 53.7862 50.9542V47.021H49.6006V50.9542C49.3398 51.317 48.8648 51.1837 48.4736 51.195V42.3655H49.6006Z" fill="white"/>
<path d="M110.594 42.388L113.513 51.195L112.305 51.0344L111.323 48.2957L108.356 48.3792L107.371 51.1677L106.27 51.1934L109.086 42.5228L110.596 42.3864L110.594 42.388ZM111.098 47.3421L109.97 43.6498C109.725 43.6739 109.722 43.8874 109.657 44.0591C109.271 45.1042 109.045 46.281 108.683 47.3421H111.098Z" fill="white"/>
<path d="M131.268 45.3723C131.668 45.8475 133.223 46.2119 133.878 46.7016C136.414 48.5943 134.253 51.7183 131.341 51.3186C130.386 51.187 129.224 50.8868 129.774 49.7518C129.945 49.5993 133.199 51.3587 133.72 49.0342C134.202 46.8862 130.117 47.2956 129.782 45.0047C129.399 42.3799 132.769 41.4665 134.562 42.762L134.181 43.4812C133.604 43.4202 133.221 43.1297 132.596 43.1634C131.397 43.2276 130.36 44.2935 131.27 45.3723H131.268Z" fill="white"/>
<path d="M121.563 51.1951L120.507 51.0442L120.397 47.3005L117.697 42.4474L119.122 42.3913L121.159 46.379C121.374 46.3115 122.702 42.8664 123.09 42.5229C123.432 42.2195 124.024 42.4057 124.46 42.3656C124.689 42.5662 121.564 47.1303 121.564 47.4209V51.1935L121.563 51.1951Z" fill="white"/>
<path d="M76.4857 42.3655V49.6699C76.4857 49.7196 76.2651 49.8978 76.3247 50.0712H79.9469C80.2753 50.0712 80.2753 51.195 79.9469 51.195H75.4392L75.1978 50.9542V42.3655H76.4857Z" fill="white"/>
<path d="M87.1108 42.3655V50.9542C87.1108 51.2817 85.9839 51.2817 85.9839 50.9542V42.3655H87.1108Z" fill="white"/>
</g>
<defs>
<clipPath id="clip0_465_6135">
<rect width="135" height="57" fill="white"/>
</clipPath>
</defs>
</svg>
