<svg width="16" height="16" viewBox="0 0 16 16" fill="none" xmlns="http://www.w3.org/2000/svg">
<path d="M7.6001 15.5C3.45785 15.5 0.100098 12.1423 0.100098 8C0.100098 3.85775 3.45785 0.5 7.6001 0.5C11.7423 0.5 15.1001 3.85775 15.1001 8C15.1001 12.1423 11.7423 15.5 7.6001 15.5ZM7.6001 14C9.1914 14 10.7175 13.3679 11.8427 12.2426C12.968 11.1174 13.6001 9.5913 13.6001 8C13.6001 6.4087 12.968 4.88258 11.8427 3.75736C10.7175 2.63214 9.1914 2 7.6001 2C6.0088 2 4.48268 2.63214 3.35746 3.75736C2.23224 4.88258 1.6001 6.4087 1.6001 8C1.6001 9.5913 2.23224 11.1174 3.35746 12.2426C4.48268 13.3679 6.0088 14 7.6001 14ZM6.85235 11L3.6701 7.81775L4.7306 6.75725L6.85235 8.879L11.0943 4.63625L12.1556 5.69675L6.85235 11Z" fill="#868C98"/>
</svg>
