<svg width="20" height="20" viewBox="0 0 20 20" fill="none" xmlns="http://www.w3.org/2000/svg">
<path d="M8.85861 9.72399L5.47611 4.41999L6.92436 4.03149L12.1376 8.84649L16.0841 7.78899C16.3723 7.71182 16.6794 7.7523 16.9378 7.90153C17.1962 8.05076 17.3847 8.29652 17.4619 8.58474C17.539 8.87297 17.4986 9.18005 17.3493 9.43843C17.2001 9.6968 16.9543 9.88532 16.6661 9.96249L5.43711 12.97L4.85511 10.7965L5.03586 10.7477L6.88611 12.5815L4.91661 13.1095C4.75511 13.1528 4.58377 13.1409 4.42981 13.0757C4.27585 13.0104 4.1481 12.8956 4.06686 12.7495L2.09961 9.20499L3.18636 8.91399L5.03586 10.7477L8.85861 9.72324V9.72399ZM4.00011 15.25H16.0001V16.75H4.00011V15.25Z" fill="#525866"/>
</svg>
