<svg width="20" height="20" viewBox="0 0 20 20" fill="none" xmlns="http://www.w3.org/2000/svg">
<path d="M9.4525 10.162L12.25 5.5L18.25 16.75H2.5L7.75 7L9.4525 10.162ZM10.2925 11.6785L12.2403 15.25H15.7502L12.1728 8.5435L10.2925 11.6785ZM5.011 15.25H10.489L7.75 10.1642L5.011 15.25ZM5.125 7C4.62772 7 4.15081 6.80246 3.79917 6.45083C3.44754 6.09919 3.25 5.62228 3.25 5.125C3.25 4.62772 3.44754 4.15081 3.79917 3.79917C4.15081 3.44754 4.62772 3.25 5.125 3.25C5.62228 3.25 6.09919 3.44754 6.45083 3.79917C6.80246 4.15081 7 4.62772 7 5.125C7 5.62228 6.80246 6.09919 6.45083 6.45083C6.09919 6.80246 5.62228 7 5.125 7Z" fill="#525866"/>
</svg>
