<svg width="14" height="10" viewBox="0 0 14 10" fill="none" xmlns="http://www.w3.org/2000/svg">
<path d="M1.37793 0.00183105H12.6279C12.9731 0.00183105 13.2529 0.28165 13.2529 0.626831V9.37681C13.2529 9.722 12.9731 10.0018 12.6279 10.0018H1.37793C1.03275 10.0018 0.75293 9.722 0.75293 9.37681V0.626831C0.75293 0.28165 1.03275 0.00183105 1.37793 0.00183105ZM3.56261 1.25H2.00011V2.8125C2.86305 2.8125 3.56261 2.11294 3.56261 1.25ZM10.4376 1.25C10.4376 2.11294 11.1372 2.8125 12.0001 2.8125V1.25H10.4376ZM2.00011 7.1875V8.75H3.56261C3.56261 7.88706 2.86305 7.1875 2.00011 7.1875ZM10.4376 8.75H12.0001V7.1875C11.1372 7.1875 10.4376 7.88706 10.4376 8.75ZM7.00013 7.5C8.38082 7.5 9.50013 6.38069 9.50013 5C9.50013 3.61929 8.38082 2.5 7.00013 2.5C5.6194 2.5 4.50011 3.61929 4.50011 5C4.50011 6.38069 5.6194 7.5 7.00013 7.5Z" fill="#868C98"/>
</svg>
