<svg width="20" height="20" viewBox="0 0 20 20" fill="none" xmlns="http://www.w3.org/2000/svg">
<path d="M4.16622 3.856L9.20397 8.89375L7.08297 11.0155L4.16547 8.098C3.60306 7.53542 3.28711 6.77249 3.28711 5.977C3.28711 5.18151 3.60306 4.41858 4.16547 3.856H4.16622ZM11.7007 10.1095L11.0602 10.75L16.3635 16.0533L15.303 17.1138L9.99972 11.8113L4.69647 17.1138L3.63597 16.0533L10.6402 9.049C10.1992 7.95625 10.6552 6.38275 11.8552 5.18125C13.32 3.71725 15.3382 3.361 16.3635 4.38625C17.3887 5.4115 17.0325 7.42975 15.5685 8.89375C14.367 10.0953 12.7935 10.5513 11.7007 10.1095Z" fill="#525866"/>
</svg>
