<svg width="22" height="22" viewBox="0 0 22 22" fill="none" xmlns="http://www.w3.org/2000/svg">
<path d="M11 18.875C6.65064 18.875 3.125 15.3494 3.125 11C3.125 6.65064 6.65064 3.125 11 3.125C15.3494 3.125 18.875 6.65064 18.875 11C18.875 15.3494 15.3494 18.875 11 18.875ZM11 17.3C12.6709 17.3 14.2733 16.6363 15.4548 15.4548C16.6363 14.2733 17.3 12.6709 17.3 11C17.3 9.32914 16.6363 7.72671 15.4548 6.54523C14.2733 5.36375 12.6709 4.7 11 4.7C9.32914 4.7 7.72671 5.36375 6.54523 6.54523C5.36375 7.72671 4.7 9.32914 4.7 11C4.7 12.6709 5.36375 14.2733 6.54523 15.4548C7.72671 16.6363 9.32914 17.3 11 17.3ZM10.2149 14.15L6.8735 10.8086L7.98702 9.69511L10.2149 11.9229L14.669 7.46806L15.7833 8.58159L10.2149 14.15Z" fill="#38C793"/>
</svg>
