<svg width="14" height="15" viewBox="0 0 14 15" fill="none" xmlns="http://www.w3.org/2000/svg">
<path d="M1.75 10V14.5H0.25V0.25H7.2865C7.42575 0.250074 7.56222 0.288912 7.68064 0.362164C7.79907 0.435416 7.89476 0.540189 7.957 0.66475L8.5 1.75H13C13.1989 1.75 13.3897 1.82902 13.5303 1.96967C13.671 2.11032 13.75 2.30109 13.75 2.5V10.75C13.75 10.9489 13.671 11.1397 13.5303 11.2803C13.3897 11.421 13.1989 11.5 13 11.5H8.2135C8.07425 11.4999 7.93778 11.4611 7.81936 11.3878C7.70093 11.3146 7.60524 11.2098 7.543 11.0853L7 10H1.75ZM1.75 1.75V8.5H7.927L8.677 10H12.25V3.25H7.573L6.823 1.75H1.75Z" fill="#525866"/>
</svg>
