<svg width="21" height="21" viewBox="0 0 21 21" fill="none" xmlns="http://www.w3.org/2000/svg">
<path d="M15.8802 14.5016L20.0561 18.6765L18.6765 20.0561L14.5016 15.8802C12.9481 17.1255 11.016 17.8028 9.025 17.8C4.1812 17.8 0.25 13.8688 0.25 9.025C0.25 4.1812 4.1812 0.25 9.025 0.25C13.8688 0.25 17.8 4.1812 17.8 9.025C17.8028 11.016 17.1255 12.9481 15.8802 14.5016ZM13.9244 13.7781C15.1618 12.5056 15.8528 10.7999 15.85 9.025C15.85 5.2537 12.7953 2.2 9.025 2.2C5.2537 2.2 2.2 5.2537 2.2 9.025C2.2 12.7953 5.2537 15.85 9.025 15.85C10.7999 15.8528 12.5056 15.1618 13.7781 13.9244L13.9244 13.7781Z" fill="#0A0D14"/>
</svg>
