<svg width="22" height="22" viewBox="0 0 22 22" fill="none" xmlns="http://www.w3.org/2000/svg">
<path d="M11 18.875C10.0693 18.875 9.14765 18.6917 8.28775 18.3355C7.42786 17.9793 6.64653 17.4573 5.9884 16.7991C5.33026 16.141 4.8082 15.3597 4.45202 14.4998C4.09584 13.6399 3.91252 12.7182 3.91252 11.7875C3.91252 10.8568 4.09584 9.93513 4.45202 9.07523C4.8082 8.21534 5.33026 7.43402 5.9884 6.77588C6.64653 6.11775 7.42786 5.59569 8.28775 5.23951C9.14765 4.88333 10.0693 4.7 11 4.7C12.8797 4.7 14.6825 5.44672 16.0116 6.77588C17.3408 8.10505 18.0875 9.90778 18.0875 11.7875C18.0875 13.6672 17.3408 15.47 16.0116 16.7991C14.6825 18.1283 12.8797 18.875 11 18.875ZM11 17.3C11.7239 17.3 12.4408 17.1574 13.1096 16.8804C13.7784 16.6034 14.3861 16.1973 14.8979 15.6854C15.4098 15.1735 15.8159 14.5659 16.0929 13.897C16.3699 13.2282 16.5125 12.5114 16.5125 11.7875C16.5125 11.0636 16.3699 10.3468 16.0929 9.67796C15.8159 9.00915 15.4098 8.40146 14.8979 7.88958C14.3861 7.37769 13.7784 6.97165 13.1096 6.69462C12.4408 6.41759 11.7239 6.275 11 6.275C9.53801 6.275 8.13589 6.85578 7.10209 7.88958C6.0683 8.92337 5.48752 10.3255 5.48752 11.7875C5.48752 13.2495 6.0683 14.6516 7.10209 15.6854C8.13589 16.7192 9.53801 17.3 11 17.3ZM11.7875 11.7875H14.15V13.3625H10.2125V7.85H11.7875V11.7875ZM2.92578 6.49708L5.70959 3.71326L6.82391 4.82679L4.03852 7.61139L2.92578 6.49708ZM16.2897 3.71326L19.0743 6.49708L17.9607 7.61139L15.1761 4.82679L16.2904 3.71326H16.2897Z" fill="#375DFB"/>
</svg>
