<svg width="16" height="16" viewBox="0 0 16 16" fill="none" xmlns="http://www.w3.org/2000/svg">
<path d="M7.99961 15.0368L4.18121 11.2184C3.42601 10.4632 2.91172 9.50102 2.70337 8.45352C2.49501 7.40603 2.60195 6.32027 3.01067 5.33356C3.41938 4.34684 4.11152 3.50348 4.99954 2.91012C5.88756 2.31676 6.9316 2.00006 7.99961 2.00006C9.06763 2.00006 10.1117 2.31676 10.9997 2.91012C11.8877 3.50348 12.5798 4.34684 12.9886 5.33356C13.3973 6.32027 13.5042 7.40603 13.2959 8.45352C13.0875 9.50102 12.5732 10.4632 11.818 11.2184L7.99961 15.0368ZM10.9696 10.37C11.5569 9.78262 11.9569 9.03425 12.1189 8.21954C12.281 7.40483 12.1978 6.56037 11.8799 5.79295C11.562 5.02552 11.0236 4.3696 10.333 3.90812C9.64228 3.44663 8.83027 3.20032 7.99961 3.20032C7.16895 3.20032 6.35694 3.44663 5.66626 3.90812C4.97558 4.3696 4.43726 5.02552 4.11936 5.79295C3.80146 6.56037 3.71826 7.40483 3.88028 8.21954C4.04231 9.03425 4.44227 9.78262 5.02961 10.37L7.99961 13.34L10.9696 10.37ZM7.99961 8.60001C7.68135 8.60001 7.37613 8.47359 7.15108 8.24854C6.92604 8.0235 6.79961 7.71827 6.79961 7.40001C6.79961 7.08175 6.92604 6.77653 7.15108 6.55149C7.37613 6.32644 7.68135 6.20001 7.99961 6.20001C8.31787 6.20001 8.6231 6.32644 8.84814 6.55149C9.07318 6.77653 9.19961 7.08175 9.19961 7.40001C9.19961 7.71827 9.07318 8.0235 8.84814 8.24854C8.6231 8.47359 8.31787 8.60001 7.99961 8.60001Z" fill="#555555"/>
</svg>
