<svg width="22" height="22" viewBox="0 0 22 22" fill="none" xmlns="http://www.w3.org/2000/svg">
<path d="M18.0875 3.9125C18.2964 3.9125 18.4967 3.99547 18.6443 4.14315C18.792 4.29084 18.875 4.49114 18.875 4.7V9.03125C18.3529 9.03125 17.8521 9.23867 17.4829 9.60788C17.1137 9.9771 16.9062 10.4779 16.9062 11C16.9062 11.5221 17.1137 12.0229 17.4829 12.3921C17.8521 12.7613 18.3529 12.9687 18.875 12.9687V17.3C18.875 17.5089 18.792 17.7092 18.6443 17.8568C18.4967 18.0045 18.2964 18.0875 18.0875 18.0875H3.9125C3.70364 18.0875 3.50334 18.0045 3.35565 17.8568C3.20797 17.7092 3.125 17.5089 3.125 17.3V12.9687C3.64714 12.9687 4.1479 12.7613 4.51712 12.3921C4.88633 12.0229 5.09375 11.5221 5.09375 11C5.09375 10.4779 4.88633 9.9771 4.51712 9.60788C4.1479 9.23867 3.64714 9.03125 3.125 9.03125V4.7C3.125 4.49114 3.20797 4.29084 3.35565 4.14315C3.50334 3.99547 3.70364 3.9125 3.9125 3.9125H18.0875ZM17.3 5.4875H4.7V7.8248L4.82285 7.88859C5.35703 8.18 5.80717 8.60405 6.12992 9.1199C6.45267 9.63574 6.63715 10.226 6.6656 10.8338L6.66875 11C6.66885 11.6365 6.49748 12.2613 6.17267 12.8086C5.84785 13.356 5.38157 13.8057 4.82285 14.1106L4.7 14.1752V16.5125H17.3V14.1744L17.1772 14.1114C16.643 13.82 16.1928 13.3959 15.8701 12.8801C15.5473 12.3643 15.3629 11.774 15.3344 11.1662L15.3313 11C15.3313 9.6581 16.077 8.49024 17.1772 7.88937L17.3 7.82401V5.4875ZM14.15 8.6375V13.3625H7.85V8.6375H14.15Z" fill="#375DFB"/>
</svg>
